<?xml version="1.0" encoding="UTF-8" standalone="no"?>
<!-- Created with Inkscape (http://www.inkscape.org/) -->

<svg
   width="210mm"
   height="297mm"
   viewBox="0 0 210 297"
   version="1.1"
   id="svg1"
   inkscape:version="1.3 (0e150ed6c4, 2023-07-21)"
   sodipodi:docname="shower assets.svg"
   xmlns:inkscape="http://www.inkscape.org/namespaces/inkscape"
   xmlns:sodipodi="http://sodipodi.sourceforge.net/DTD/sodipodi-0.dtd"
   xmlns="http://www.w3.org/2000/svg"
   xmlns:svg="http://www.w3.org/2000/svg">
  <sodipodi:namedview
     id="namedview1"
     pagecolor="#ffffff"
     bordercolor="#000000"
     borderopacity="0.25"
     inkscape:showpageshadow="2"
     inkscape:pageopacity="0.0"
     inkscape:pagecheckerboard="0"
     inkscape:deskcolor="#d1d1d1"
     inkscape:document-units="mm"
     inkscape:zoom="2"
     inkscape:cx="350.75"
     inkscape:cy="513.75"
     inkscape:window-width="1920"
     inkscape:window-height="1051"
     inkscape:window-x="-9"
     inkscape:window-y="-9"
     inkscape:window-maximized="1"
     inkscape:current-layer="layer1" />
  <defs
     id="defs1">
    <inkscape:perspective
       sodipodi:type="inkscape:persp3d"
       inkscape:vp_x="11.109632 : 132.71245 : 1"
       inkscape:vp_y="-312.26066 : 949.99646 : 0"
       inkscape:vp_z="210.60889 : 198.28719 : 1"
       inkscape:persp3d-origin="126.31616 : 118.47499 : 1"
       id="perspective1" />
  </defs>
  <g
     inkscape:label="Layer 1"
     inkscape:groupmode="layer"
     id="layer1">
    <path
       style="fill:#c8cc04;fill-opacity:1;stroke:none;stroke-width:0.257433"
       d="m 72.159913,140.43191 c -0.799502,1.67501 -1.510388,-0.52555 -2.547137,0.6711 -0.912363,-0.22768 -2.044351,1.22862 -2.754315,0.29516 -0.985296,-0.0803 -1.937212,1.50205 -2.68245,0.46826 -0.343589,0.44193 -1.449783,1.49644 -1.49307,0.45597 -0.750473,0.0784 -1.80822,1.23067 -2.05557,0.0949 -0.827618,0.23221 -1.596036,0.92483 -2.452004,0.8033 -0.690426,0.7896 -1.103116,0.53239 -1.451279,-0.0226 -0.646665,0.44714 -0.822937,0.0618 -1.13978,-0.2811 -0.808258,-0.32971 -0.567615,-1.18561 -0.168504,-1.54771 0.181135,-0.93868 -0.77129,-0.96363 -0.436687,-1.92084 -0.693762,-0.18615 -0.683139,-1.00528 -0.378638,-1.34347 -0.543539,-0.22688 -1.72287,-1.03516 -0.701395,-1.69106 -0.47782,-0.34956 -1.006491,-0.72092 -0.204857,-1.05247 -0.133252,-0.68019 -0.781395,-2.35277 0.400622,-1.73773 0.571992,0.72702 0.200937,-1.38149 0.658109,-1.66956 0.91696,0.0166 1.262192,-0.75222 1.921646,-2.09949 0.944525,-1.13576 2.42829,3.25721 3.05702,4.03868 0.849134,-0.22797 1.576209,-2.0617 2.353059,-0.63848 0.697104,0.36636 1.222321,-2.14888 1.727149,-0.8732 0.884256,0.30138 1.236492,-1.60536 1.756199,-0.53537 0.780054,-0.17914 1.608013,-0.92065 2.381252,-0.48967 0.603582,-0.16662 0.999626,-0.27741 1.595881,-0.32275 1.104216,-0.91394 2.084205,-0.12291 0.60626,1.32019 -0.692003,0.88843 1.661089,1.33307 0.303452,2.36563 0.494104,0.25902 6.642187,2.12675 6.051913,3.15311 -0.08828,0.98601 -0.313257,0.93943 -0.958797,1.0748 -0.64554,0.13537 0.08404,1.77385 -0.439816,1.99809 -0.523858,0.22424 -2.948263,-0.51364 -2.948263,-0.51364 z"
       id="path7-2"
       sodipodi:nodetypes="cccccccccccccccccccccccccczzc" />
    <path
       style="fill:#f6fa0f;fill-opacity:1;stroke:none;stroke-width:0.264583"
       d="m 56.480362,130.17788 c 0.686044,-1.63774 2.010506,0.68895 2.983165,-0.43229 0.965009,0.32963 1.468987,-1.38355 2.284309,-0.34975 1.028051,0.18578 1.879952,-1.34075 2.740367,-0.20015 0.318491,-0.41819 1.375233,-1.38606 1.508681,-0.31215 0.77115,-0.002 1.769356,-1.07535 2.12243,0.11794 0.838021,-0.15191 1.575483,-0.78324 2.472995,-0.56863 0.648373,-0.73918 1.548402,-0.61694 1.956513,-0.01 0.632167,-0.39179 1.26333,-0.35516 1.62092,0.0305 1.170975,-0.15208 0.476932,1.12459 0.09411,1.45492 -0.107821,0.94576 0.678116,1.60252 0.412802,2.55124 0.734895,0.26403 0.793629,1.1048 0.506818,1.42046 0.582675,0.29015 1.873812,1.24447 0.870938,1.81154 0.525005,0.40935 1.104563,0.84642 0.301937,1.10317 0.19602,0.71304 0.650782,2.13708 -0.62668,1.38108 -0.654746,-0.80715 -0.630793,-0.24537 -1.119642,0.3287 -0.697191,-0.25238 -1.569002,-1.63376 -2.137793,-0.3182 -0.882256,1.06833 -1.980599,0.53901 -2.698785,-0.33014 -0.860684,0.14531 -1.458144,1.95377 -2.384481,0.40961 -0.753716,-0.4496 -1.083935,2.08045 -1.715776,0.71644 -0.942147,-0.40242 -1.144885,1.52036 -1.774635,0.36619 -0.793242,0.10235 -1.588255,0.77769 -2.426368,0.25371 -0.611404,0.10799 -1.012449,0.18034 -1.626583,0.16446 -1.066661,0.8236 -2.149722,-0.0921 -0.740762,-1.42039 0.64159,-0.84059 -1.835143,-1.54418 -0.515914,-2.46313 -0.534178,-0.31801 -1.338202,-0.76324 -0.813799,-1.75624 -1.080475,-0.50766 -0.02289,-1.80911 -0.980333,-2.13963 -0.299306,-0.56171 0.0109,-1.25437 -0.314437,-1.80963 z"
       id="path7"
       sodipodi:nodetypes="ccccccccccccccccccccccccccccc" />
    <path
       id="path8"
       style="fill:#000000;fill-opacity:0.19559228;stroke:none;stroke-width:0.14287"
       d="M 72.839482 129.0252 C 72.819937 129.02547 72.800832 129.03462 72.788839 129.03967 C 72.764852 129.04977 72.761384 129.05082 72.748014 129.05672 L 72.625024 129.11357 C 72.635614 129.25112 72.59656 129.42037 72.60332 129.52439 C 72.61008 129.62842 72.657596 129.67689 72.709774 129.70009 C 72.761951 129.72329 72.782164 129.73727 72.827079 129.73317 C 72.871994 129.72906 72.886458 129.70631 72.909245 129.63395 C 72.932032 129.56159 72.947106 129.40546 72.940251 129.30942 C 72.933395 129.21338 72.915835 129.12177 72.891158 129.06292 C 72.878819 129.0335 72.859026 129.02493 72.839482 129.0252 z M 67.797929 129.66392 C 67.682552 129.66609 67.623926 129.71552 67.592257 129.74247 C 67.586418 129.74744 67.584024 129.74931 67.580888 129.75177 C 67.578667 129.75173 67.579199 129.75182 67.576754 129.75177 C 67.57666 129.75196 67.579692 129.75213 67.580371 129.75229 C 67.576521 129.75529 67.57238 129.75773 67.571586 129.75797 C 67.572388 129.75629 67.576024 129.75236 67.576237 129.75229 C 67.470559 129.75074 67.151427 129.90463 67.074976 130.07733 C 66.998416 130.25028 67.078948 130.43309 67.214502 130.51348 C 67.350121 130.59388 67.438 130.62339 67.606726 130.70417 C 67.775453 130.78497 68.064087 130.80042 68.272319 130.73672 C 68.480549 130.67302 68.73718 130.56717 68.859363 130.52743 C 68.981546 130.48773 68.894659 130.45722 68.985453 130.44992 C 69.076243 130.44292 69.159039 130.31867 69.214897 130.23081 C 69.270757 130.14291 69.230345 130.04477 69.207145 129.94194 C 69.183925 129.83911 69.099318 129.75321 68.962199 129.73265 C 68.825079 129.71205 68.661243 129.71144 68.47644 129.69234 C 68.291639 129.67314 68.001782 129.68069 67.850639 129.66599 C 67.831746 129.66415 67.814411 129.66361 67.797929 129.66392 z M 62.428231 129.85306 C 62.298367 129.85302 62.15183 129.89774 62.015853 129.9931 C 61.79829 130.14567 61.769557 130.48642 61.683057 130.74292 L 61.732666 130.94084 C 61.732666 130.94084 61.701746 130.8709 61.734216 130.9703 C 61.766684 131.0697 61.960375 131.32685 62.116105 131.46433 C 62.271835 131.60181 62.408605 131.49661 62.625118 131.32583 C 62.841632 131.15505 62.954205 130.5825 62.890735 130.32021 C 62.827269 130.05791 62.797673 129.98218 62.638037 129.90008 C 62.578174 129.86928 62.506149 129.85308 62.428231 129.85306 z M 71.010653 130.79098 C 70.867173 130.79416 70.739732 130.82585 70.677856 130.89072 C 70.536425 131.03903 70.623013 131.13976 70.675273 131.1708 C 70.564814 131.33497 70.04833 131.86714 70.05929 132.19296 C 70.07025 132.51878 70.235652 132.6687 70.497506 132.74745 C 70.759359 132.82615 71.015667 132.58304 71.240096 132.48235 C 71.464524 132.38166 71.754217 132.40397 71.854529 132.18986 C 71.95484 131.97571 72.042251 131.74842 71.919641 131.54598 C 71.79703 131.34353 71.769536 131.0482 71.536719 130.90829 C 71.405759 130.82959 71.195126 130.7869 71.010653 130.79098 z M 59.268217 130.86385 C 59.207901 130.86449 59.166588 130.89304 59.119389 130.93051 L 59.045492 131.05453 C 58.899484 131.11543 58.726034 131.15499 58.68324 131.3186 C 58.64045 131.48222 58.620975 131.68723 58.781425 131.74751 C 58.941875 131.80781 59.072552 131.8879 59.179333 131.93458 C 59.286114 131.98118 59.426152 132.06369 59.597913 132.07308 C 59.769672 132.08208 59.708019 132.43566 59.870247 132.26479 C 60.032475 132.09393 60.150871 131.93535 60.174622 131.75216 C 60.198372 131.56897 60.303729 131.4719 60.280558 131.28708 C 60.257388 131.10226 60.025018 131.00773 59.851127 130.96668 C 59.677236 130.92568 59.485304 130.92403 59.364852 130.88193 C 59.32721 130.86878 59.295633 130.86355 59.268217 130.86385 z M 68.93016 131.6669 C 68.911476 131.66649 68.881969 131.67071 68.832491 131.67465 C 68.719397 131.68365 68.423785 131.69818 68.307975 131.72478 C 68.192186 131.75128 68.189384 131.72972 68.158114 131.77852 C 68.126974 131.82682 68.125581 131.89745 68.145711 131.94285 C 68.165861 131.98815 68.177706 132.05193 68.207206 132.07308 C 68.236876 132.09388 68.220432 132.09173 68.239762 132.10563 C 68.256685 132.11762 68.354644 132.07816 68.360168 132.07721 C 68.363717 132.07584 68.367478 132.07474 68.370504 132.07411 C 68.370504 132.07411 68.327616 132.08342 68.369987 132.07359 L 68.370504 132.07359 C 68.416181 132.06365 68.523112 132.07237 68.617 132.08134 C 68.71128 132.09034 68.865613 132.10698 68.958582 132.08858 C 69.051531 132.07038 69.062574 132.03953 69.079504 131.97541 C 69.096174 131.91141 69.082722 131.8108 69.068652 131.75423 C 69.054542 131.69773 68.974919 131.74539 68.965299 131.70049 C 68.959899 131.67551 68.954181 131.66742 68.93016 131.6669 z M 65.258032 131.67878 C 65.237904 131.67942 65.218126 131.68169 65.198088 131.6855 C 65.037756 131.716 64.850147 131.8545 64.761422 131.97954 C 64.672812 132.10475 64.650853 132.21242 64.670471 132.32836 C 64.690091 132.44428 64.728119 132.55938 64.763489 132.59346 L 64.763489 132.59397 C 64.733539 132.66897 64.745841 133.00537 64.984147 132.82858 C 65.222469 132.65183 65.688971 132.42881 65.870398 132.23637 C 66.051825 132.04393 65.729252 131.95663 65.627519 131.84363 C 65.538508 131.74477 65.398928 131.67436 65.258032 131.67878 z M 68.356551 132.07928 C 68.345025 132.08417 68.336793 132.08914 68.356551 132.07928 z M 73.477169 132.61309 C 73.470297 132.61337 73.46195 132.61459 73.450814 132.61774 C 73.361724 132.64294 73.432339 132.65485 73.426009 132.66115 C 73.31557 132.74505 72.893778 133.03841 72.775403 133.18153 C 72.657028 133.32465 72.640557 133.3347 72.652413 133.43527 C 72.664273 133.53584 72.681705 133.59445 72.857568 133.63215 C 73.033431 133.66985 73.444736 133.6689 73.62393 133.6766 C 73.803124 133.6846 73.802934 133.59507 73.820817 133.48643 C 73.838697 133.37776 73.865356 133.24925 73.865776 133.13503 C 73.866196 133.02081 73.898726 132.91189 73.852856 132.80481 C 73.806986 132.69773 73.624894 132.69001 73.549516 132.68027 C 73.483558 132.67152 73.525273 132.61116 73.477169 132.61309 z M 61.529061 132.74125 C 61.380519 132.73795 61.2346 132.78934 61.162675 132.85391 C 61.047595 132.95728 61.087186 132.92776 61.079476 132.94176 L 61.079476 133.11487 C 60.891905 133.30172 61.0179 133.67482 61.277397 133.70657 C 61.536897 133.73837 61.826256 133.89067 61.80708 134.15874 C 61.78791 134.42682 61.779851 134.64161 61.919735 134.84397 C 62.059617 135.04632 62.35876 135.1659 62.542436 134.91425 C 62.726112 134.6626 62.793515 134.1773 62.686096 133.90552 C 62.578678 133.63374 62.284646 133.68989 62.192586 133.45594 C 62.100526 133.222 61.985035 132.94868 61.783826 132.81515 C 61.708372 132.76508 61.618186 132.74323 61.529061 132.74125 z M 68.040808 132.74229 C 67.811116 132.74204 67.516715 132.89022 67.548848 133.11694 C 67.588398 133.39598 67.870049 133.40056 68.013936 133.58203 C 68.157825 133.76351 68.412544 133.84084 68.647489 133.84041 C 68.882434 133.83999 69.121871 133.74349 69.160636 133.47712 C 69.199406 133.21078 68.919303 133.07233 68.715186 133.01049 C 68.511067 132.94869 68.405262 132.85643 68.184985 132.76709 C 68.143684 132.75035 68.093814 132.74234 68.040808 132.74229 z M 65.10507 134.28948 C 64.942852 134.2899 64.782599 134.30371 64.66427 134.35201 C 64.427611 134.44871 64.397028 134.716 64.343359 134.84448 C 64.289689 134.97296 64.191366 134.89264 64.115466 134.88634 L 64.18988 135.15816 C 64.20259 135.4083 64.138834 135.7889 64.391935 135.89506 C 64.645036 136.00121 64.788104 135.90579 65.07148 135.92349 C 65.354857 135.94129 65.727644 135.76943 65.965999 135.52609 C 66.204355 135.28276 66.337832 134.78489 66.134465 134.5799 C 65.931096 134.37491 65.815935 134.32005 65.559823 134.30808 C 65.431766 134.30208 65.267288 134.28905 65.10507 134.28948 z M 73.090112 135.04344 C 73.077651 135.04429 73.06594 135.04672 73.055489 135.05119 C 72.971879 135.08689 72.968479 135.10788 72.95317 135.12198 C 72.87744 135.09788 72.802146 135.23168 72.799691 135.38605 C 72.797291 135.54043 72.988253 135.83093 73.172795 135.82944 C 73.357336 135.82744 73.494003 135.85944 73.602226 135.79274 C 73.71045 135.72615 73.78795 135.78155 73.809448 135.66097 C 73.830948 135.54036 73.83062 135.42043 73.71178 135.36383 C 73.592934 135.30723 73.534648 135.16774 73.414124 135.13749 C 73.308664 135.11106 73.177338 135.03749 73.090112 135.04344 z M 68.800968 135.51266 C 68.765629 135.51347 68.734758 135.51625 68.711051 135.52248 C 68.616222 135.54738 68.692104 135.637 68.688314 135.65942 C 68.625654 135.64682 68.507893 135.5812 68.422697 135.8191 C 68.337497 136.05701 67.948288 136.54521 67.924019 136.78907 C 67.899749 137.03293 67.920177 136.97963 67.806714 137.00456 C 67.693278 137.02946 67.65234 137.22564 67.795345 137.2371 C 67.93835 137.2486 68.06776 137.29277 68.229427 137.23917 C 68.391094 137.18557 68.546284 137.08062 68.718803 136.91516 C 68.891322 136.7497 69.176166 136.49075 69.245903 136.26455 C 69.315642 136.03835 69.421202 135.88364 69.383362 135.7266 C 69.345522 135.56956 69.302302 135.51388 69.159603 135.52041 C 69.05258 135.52566 68.906987 135.51024 68.800968 135.51266 z M 70.857174 135.67131 C 70.772532 135.67255 70.6831 135.68267 70.610677 135.68267 C 70.465395 135.68267 70.346976 135.66545 70.221554 135.72815 C 70.199964 135.73895 70.169884 135.7345 70.152824 135.7514 C 70.121574 135.7826 70.107349 135.91801 70.107349 135.95708 C 70.107349 135.96408 70.100549 136.1235 70.107349 136.14053 C 70.170479 136.29836 70.445832 136.25138 70.541947 136.32346 C 70.633497 136.39216 70.496167 136.34639 70.541947 136.39219 C 70.561397 136.41159 70.594177 136.41567 70.610677 136.43767 C 70.652907 136.49397 70.561236 136.52731 70.725399 136.62112 C 70.855249 136.69532 71.043665 136.66659 71.182735 136.66659 C 71.282405 136.66659 71.439679 136.69733 71.480391 136.57513 C 71.485191 136.56063 71.475591 136.54415 71.480391 136.52965 C 71.545901 136.33313 71.509131 136.52893 71.549121 136.36894 C 71.549915 136.36594 71.526383 136.13701 71.526383 136.11727 C 71.351183 135.91233 71.248056 135.73784 70.999801 135.68267 C 70.956879 135.67315 70.907959 135.67056 70.857174 135.67131 z M 61.237606 136.06198 L 61.015397 136.11159 C 60.680541 136.17569 60.439486 136.60179 60.458325 136.83919 C 60.477165 137.0766 60.361827 137.06256 60.518787 137.19524 C 60.675744 137.32793 60.526789 137.62642 60.411816 137.83241 C 60.296853 138.0384 60.37817 138.35492 60.513619 138.53986 C 60.649067 138.72481 61.053338 138.7076 61.059322 138.46958 C 61.065322 138.23153 60.918366 138.06641 61.000411 137.87892 C 61.082451 137.69143 61.34985 137.62831 61.608126 137.5854 C 61.866402 137.5425 61.844057 137.13956 61.57557 137.07587 C 61.307078 137.01217 61.321385 136.70774 61.451546 136.5219 C 61.581707 136.33605 61.387121 136.04764 61.265511 136.06818 C 61.143905 136.08868 61.255752 136.06608 61.251042 136.06508 C 61.246442 136.06408 61.237606 136.06198 61.237606 136.06198 z M 63.001839 136.74256 C 63.000169 136.74742 63.004245 136.78257 63.011658 136.78132 C 63.005803 136.74797 63.002841 136.73964 63.001839 136.74256 z M 63.011658 136.78132 C 63.027268 136.87022 63.048722 137.19097 63.106742 137.31462 C 63.164762 137.43827 63.228598 137.4628 63.294328 137.50479 C 63.360058 137.54679 63.426188 137.56381 63.488631 137.52701 C 63.551071 137.49021 63.606865 137.42345 63.632808 137.36991 C 63.658748 137.31641 63.615594 137.27301 63.644694 137.23348 C 63.673794 137.19398 63.655828 137.1594 63.650378 137.10533 C 63.644978 137.05123 63.694155 136.97527 63.687585 136.92032 C 63.680985 136.86532 63.618914 136.89084 63.608004 136.83764 C 63.597094 136.78444 63.547717 136.76835 63.479846 136.76995 C 63.411966 136.77195 63.293766 136.79571 63.228699 136.77821 C 63.163629 136.76071 63.119169 136.75583 63.082971 136.76633 C 63.046771 136.77683 63.023518 136.77882 63.011658 136.78132 z M 65.170699 137.16217 C 65.158677 137.16227 65.14728 137.16287 65.137109 137.16424 C 65.055749 137.17514 65.054131 137.20772 65.057011 137.27689 C 65.059911 137.34599 65.101448 137.45852 65.130908 137.52236 C 65.160368 137.58616 65.22131 137.5416 65.243046 137.5916 C 65.264786 137.6415 65.271558 137.63236 65.374304 137.63346 C 65.477047 137.63446 65.747994 137.64713 65.848177 137.62933 C 65.94836 137.61143 65.957091 137.63507 65.972201 137.58437 C 65.987311 137.53407 65.967857 137.45662 65.936027 137.40453 C 65.904177 137.35243 65.875039 137.28086 65.841459 137.25467 C 65.807879 137.22847 65.823638 137.2326 65.801668 137.2154 C 65.782445 137.20035 65.702678 137.23502 65.697799 137.23555 C 65.695101 137.23675 65.691924 137.23806 65.68953 137.23865 C 65.65015 137.24565 65.54799 137.22508 65.457503 137.20558 C 65.378325 137.18852 65.254857 137.16145 65.170699 137.16217 z M 65.708134 137.22987 C 65.70671 137.23056 65.705072 137.23111 65.700899 137.23348 C 65.700253 137.23385 65.700305 137.23425 65.699866 137.23452 C 65.703198 137.23293 65.706116 137.23109 65.708134 137.22987 z " />
  </g>
</svg>
